<svg width="160" height="40" viewBox="0 0 160 40" fill="none" xmlns="http://www.w3.org/2000/svg">
<rect width="40" height="40" rx="6" fill="#3574D1"/>
<g clip-path="url(#clip0_506_0)">
<path d="M17.8154 29.3333H21.3032V20.5951H23.7363L23.9925 17.6723H21.3032C21.3032 17.6723 21.3032 16.58 21.3032 16.0075C21.3032 15.3145 21.4388 15.0433 22.1092 15.0433C22.6441 15.0433 24 15.0433 24 15.0433V12C24 12 22.0113 12 21.5819 12C18.9831 12 17.8154 13.145 17.8154 15.3296C17.8154 17.2354 17.8154 17.6648 17.8154 17.6648H16V20.6252H17.8154V29.3333Z" fill="white"/>
</g>
<rect x="60" width="40" height="40" rx="6" fill="#FFE812"/>
<g clip-path="url(#clip1_506_0)">
<path d="M80 8C72.6359 8 66.6666 12.6145 66.6666 18.3075C66.6666 21.988 69.1628 25.2172 72.9166 27.0411C72.7128 27.7312 71.6038 31.4834 71.5602 31.7788C71.5602 31.7788 71.5333 32 71.6794 32.0842C71.8256 32.1685 71.9974 32.1031 71.9974 32.1031C72.4166 32.0453 76.8615 28.9845 77.6307 28.4528C78.4 28.5596 79.191 28.6149 79.9987 28.6149C87.3628 28.6149 93.332 24.0004 93.332 18.3075C93.3333 12.6145 87.3641 8 80 8Z" fill="black"/>
<path d="M72.6282 21.9063C72.2038 21.9063 71.8589 21.5832 71.8589 21.186V16.7048H70.6589C70.2423 16.7048 69.9038 16.3729 69.9038 15.9657C69.9038 15.5584 70.2423 15.2265 70.6589 15.2265H74.5974C75.0141 15.2265 75.3525 15.5584 75.3525 15.9657C75.3525 16.3729 75.0141 16.7048 74.5974 16.7048H73.3974V21.1847C73.3974 21.582 73.0525 21.9063 72.6282 21.9063Z" fill="#FFE812"/>
<path d="M79.373 21.8962C79.0525 21.8962 78.8064 21.768 78.7333 21.5631L78.3525 20.5851H76.0064L75.6256 21.5631C75.5525 21.768 75.3064 21.8962 74.9858 21.8962C74.8166 21.8962 74.6474 21.8597 74.4974 21.7919C74.2858 21.6963 74.082 21.4324 74.3153 20.7209L76.1538 15.9719C76.2833 15.6112 76.6769 15.2391 77.1782 15.2278C77.6807 15.2391 78.0743 15.6112 78.2038 15.9732L80.0435 20.7196C80.2782 21.4324 80.0743 21.6963 79.8615 21.7919C79.7115 21.8597 79.5423 21.8962 79.373 21.8962ZM77.9474 19.2489L77.1794 17.1095L76.4115 19.2502H77.9474V19.2489Z" fill="#FFE812"/>
<path d="M81.282 21.7956C80.8756 21.7956 80.5448 21.4852 80.5448 21.1043V15.982C80.5448 15.5659 80.8974 15.2278 81.3307 15.2278C81.764 15.2278 82.1166 15.5659 82.1166 15.982V20.4129H83.7512C84.1576 20.4129 84.4884 20.7234 84.4884 21.1043C84.4884 21.4852 84.1576 21.7956 83.7512 21.7956H81.282Z" fill="#FFE812"/>
<path d="M85.5551 21.8962C85.1308 21.8962 84.7859 21.5581 84.7859 21.142V15.982C84.7859 15.5659 85.1308 15.2278 85.5551 15.2278C85.9795 15.2278 86.3244 15.5659 86.3244 15.982V17.6035L88.4705 15.4993C88.5808 15.3912 88.732 15.3309 88.8974 15.3309C89.0897 15.3309 89.282 15.4126 89.4269 15.5533C89.5615 15.6853 89.6423 15.855 89.6526 16.031C89.6641 16.2082 89.6038 16.3717 89.4833 16.4898L87.7308 18.2094L89.6244 20.6694C89.7487 20.8303 89.8013 21.0289 89.7718 21.2287C89.7436 21.4286 89.6372 21.6046 89.4731 21.7265C89.3385 21.8258 89.1782 21.8786 89.0102 21.8786C88.7667 21.8786 88.5423 21.7692 88.3961 21.5794L86.5923 19.2364L86.3256 19.4978V21.1433C86.3243 21.5581 85.9795 21.8962 85.5551 21.8962Z" fill="#FFE812"/>
</g>
<rect x="120" width="40" height="40" rx="6" fill="#3ACE01"/>
<g clip-path="url(#clip2_506_0)">
<path d="M139.999 8C147.363 8 153.332 12.7293 153.332 18.5626C153.332 20.6003 152.603 22.5028 151.342 24.1161C151.279 24.2084 151.198 24.3093 151.095 24.4216L151.087 24.4301C150.656 24.9403 150.171 25.419 149.637 25.8616C145.95 29.2336 139.881 33.2472 139.08 32.6276C138.383 32.0889 140.227 29.4563 138.1 29.0185C137.952 29.0014 137.804 28.9833 137.657 28.9633H137.654C131.409 28.0839 126.667 23.762 126.667 18.5626C126.667 12.7293 132.636 8 139.999 8Z" fill="white"/>
<path d="M132.264 21.9318H132.308H132.321H134.953C135.335 21.9318 135.648 21.6225 135.648 21.2437V21.1866C135.648 20.8078 135.335 20.4984 134.953 20.4984H133.017V16.1413C133.017 15.7625 132.704 15.4532 132.321 15.4532H132.264C131.881 15.4532 131.568 15.7625 131.568 16.1413V21.2437C131.568 21.6225 131.881 21.9318 132.264 21.9318ZM148.926 18.7329V18.6758C148.926 18.297 148.613 17.9877 148.231 17.9877H146.295V16.8989H148.231C148.613 16.8989 148.926 16.5896 148.926 16.2108V16.1537C148.926 15.7749 148.613 15.4656 148.231 15.4656H145.599H145.586H145.542C145.159 15.4656 144.846 15.7749 144.846 16.1537V21.256C144.846 21.6348 145.159 21.9441 145.542 21.9441H145.586H145.599H148.231C148.613 21.9441 148.926 21.6348 148.926 21.256V21.1989C148.926 20.8201 148.613 20.5108 148.231 20.5108H146.295V19.421H148.231C148.613 19.421 148.926 19.1117 148.926 18.7329ZM143.755 21.7262C143.879 21.6015 143.956 21.4312 143.956 21.2437V16.1413C143.956 15.7625 143.644 15.4532 143.261 15.4532H143.203C142.82 15.4532 142.507 15.7625 142.507 16.1413V19.1365L139.994 15.8015C139.873 15.594 139.647 15.4532 139.389 15.4532H139.332C138.949 15.4532 138.636 15.7625 138.636 16.1413V21.2437C138.636 21.6225 138.949 21.9318 139.332 21.9318H139.389C139.772 21.9318 140.085 21.6225 140.085 21.2437V18.1923L142.616 21.6129C142.632 21.6367 142.649 21.6596 142.667 21.6815C142.736 21.7757 142.832 21.8395 142.937 21.8794C143.019 21.9127 143.108 21.9308 143.201 21.9308H143.259C143.376 21.9308 143.487 21.9013 143.584 21.8509C143.655 21.8185 143.714 21.7766 143.755 21.7262ZM136.905 21.9318H136.962C137.345 21.9318 137.658 21.6225 137.658 21.2437V16.1413C137.658 15.7625 137.345 15.4532 136.962 15.4532H136.905C136.522 15.4532 136.209 15.7625 136.209 16.1413V21.2437C136.209 21.6225 136.523 21.9318 136.905 21.9318Z" fill="#3ACE01"/>
</g>
<defs>
<clipPath id="clip0_506_0">
<rect width="8" height="17.3333" fill="white" transform="translate(16 12)"/>
</clipPath>
<clipPath id="clip1_506_0">
<rect width="26.6667" height="24.127" fill="white" transform="translate(66.6666 8)"/>
</clipPath>
<clipPath id="clip2_506_0">
<rect width="26.6667" height="24.6914" fill="white" transform="translate(126.667 8)"/>
</clipPath>
</defs>
</svg>
