<svg width="63" height="52" viewBox="0 0 63 52" fill="none" xmlns="http://www.w3.org/2000/svg">
<path d="M62.4013 2.43996C67.0465 13.7979 16.6602 49.0393 12.4562 50.7587C10.0991 51.7227 7.20653 52.2809 6.32987 50.1374C6.03721 49.4218 6.45134 48.044 7.41164 46.1949L7.41099 46.1964L0.720493 40.9608C-0.185269 40.2517 -0.246723 38.9094 0.591861 38.1068L1.15396 37.5689C2.17172 36.5929 3.56729 36.106 4.96903 36.2365L13.5542 37.0368C15.6493 34.299 18.0841 31.3334 20.6985 28.3256L3.30261 25.1429C1.92599 24.8907 1.29253 23.3077 2.11424 22.1752L2.95656 21.0155C4.35833 19.0847 6.49887 17.8085 8.87048 17.4885L34.2454 14.0756C40.2513 8.35207 45.9353 3.79712 49.7619 2.23209C50.7843 1.81392 51.8188 1.42212 52.835 1.08792L47.1694 7.00409L47.9439 9.36968L56.6528 0.150129C59.4616 -0.296117 61.4816 0.191337 62.4013 2.43996ZM42.5192 33.458L54.9941 39.5437C55.7542 39.9153 56.6752 39.7427 57.2571 39.1228L58.1875 38.1287C59.8852 36.3161 60.2273 33.6415 59.0366 31.4938L54.2712 22.8999C53.9762 22.3681 53.256 22.2494 52.7955 22.6569L42.3151 31.8972C41.8059 32.3472 41.9117 33.1617 42.5192 33.458Z" fill="#05BD99"/>
</svg>
